<?xml version="1.0" standalone="no"?>
<!DOCTYPE svg PUBLIC "-//W3C//DTD SVG 20010904//EN"
 "http://www.w3.org/TR/2001/REC-SVG-20010904/DTD/svg10.dtd">
<svg version="1.0" xmlns="http://www.w3.org/2000/svg"
 width="3228.000000pt" height="1286.000000pt" viewBox="0 0 3228.000000 1286.000000"
 preserveAspectRatio="xMidYMid meet">
 <defs>
  <linearGradient id="grad1" x1="0%" y1="0%" x2="100%" y2="0%">
   <stop offset="0%" 	style="stop-color:#8a55ad;			stop-opacity:1" />
   <stop offset="100%" 	style="stop-color:#36b2e3;	stop-opacity:1" />
  </linearGradient>

 </defs>
<metadata>
Created by potrace 1.15, written by Peter Selinger 2001-2017
</metadata>
<g transform="translate(0.000000,1286.000000) scale(0.100000,-0.100000)"
fill="white" stroke="none">
<path d="M12025 10279 c-254 -30 -470 -128 -665 -301 -58 -51 -271 -257 -475
-458 -1256 -1241 -1535 -1518 -1535 -1525 0 -4 -107 -116 -237 -249 -351 -356
-447 -477 -515 -653 -62 -160 -78 -249 -90 -498 -6 -126 -13 -232 -14 -234 -2
-1 -51 13 -111 32 l-108 36 -266 6 -267 7 -118 -47 c-185 -74 -338 -155 -510
-270 -87 -58 -161 -105 -166 -105 -4 0 -74 39 -155 87 -225 132 -258 150 -394
219 -210 105 -206 104 -515 104 l-267 0 -96 -31 c-53 -17 -117 -33 -142 -36
-54 -6 -52 -11 -69 112 -17 112 -73 294 -125 400 -28 58 -72 124 -123 186 -95
115 -529 564 -813 844 -112 110 -566 560 -1009 1001 -671 667 -819 810 -891
857 -145 96 -312 162 -486 192 -116 20 -389 20 -489 0 -431 -90 -814 -418
-967 -830 -58 -157 -84 -344 -73 -534 13 -212 44 -324 157 -561 l60 -125 777
-778 c427 -428 784 -782 792 -785 8 -4 103 -99 211 -212 241 -251 713 -718
834 -823 169 -149 302 -222 508 -281 195 -57 467 -56 701 1 l109 27 18 -22
c10 -13 32 -68 49 -124 73 -235 257 -524 525 -823 l72 -80 6 -96 c8 -123 34
-194 93 -254 57 -59 130 -93 230 -105 99 -12 134 -20 134 -28 0 -52 34 -272
46 -297 44 -94 138 -148 287 -166 54 -7 104 -17 113 -23 9 -7 20 -47 29 -111
19 -132 38 -186 85 -234 67 -69 154 -102 303 -117 l67 -6 0 -88 c0 -145 38
-234 140 -328 46 -42 79 -53 196 -63 l115 -11 72 58 c109 88 348 331 394 401
23 34 53 94 68 133 15 39 35 75 46 81 11 5 60 19 111 29 146 32 217 72 267
154 18 29 34 79 76 228 18 69 38 82 135 92 96 10 136 25 186 69 54 48 85 105
118 223 15 54 33 95 45 105 11 9 58 22 103 28 103 15 177 48 211 93 15 19 54
106 88 194 33 87 97 229 142 314 266 505 301 607 314 903 3 87 10 160 14 163
5 3 66 -7 136 -22 230 -49 501 -35 718 37 106 36 237 104 325 170 51 38 275
252 556 531 259 257 475 468 480 468 10 0 1047 1041 1435 1441 l256 264 65
140 c117 250 141 355 142 605 0 188 -11 277 -51 400 -148 453 -532 795 -996
885 -101 20 -315 27 -422 14z m327 -590 c75 -15 222 -89 293 -146 151 -123
249 -307 270 -508 13 -124 -34 -314 -104 -422 -20 -32 -85 -110 -144 -174
-125 -138 -656 -679 -666 -679 -3 0 -16 37 -29 83 -30 111 -138 327 -211 424
-74 98 -222 241 -321 309 -125 86 -254 145 -415 190 l-60 16 331 327 c348 344
506 485 589 526 118 58 328 83 467 54z m-10502 -329 c119 -39 201 -98 395
-280 160 -151 595 -584 595 -592 0 -5 -8 -8 -17 -8 -34 0 -317 -141 -413 -205
-113 -75 -269 -219 -340 -313 -63 -85 -157 -267 -205 -400 l-37 -102 -282 276
c-439 432 -531 536 -581 661 -109 272 -50 565 155 774 105 107 252 189 375
210 89 14 282 3 355 -21z m8993 -1154 c42 -10 77 -22 77 -27 0 -5 12 -9 26 -9
36 0 148 -61 217 -118 108 -89 177 -192 228 -342 29 -85 33 -107 33 -210 1
-67 -5 -137 -13 -168 -13 -51 -15 -53 -40 -47 -89 21 -102 27 -97 40 8 22 -13
32 -124 60 -128 32 -174 52 -254 109 -108 77 -205 194 -275 333 l-31 62 0 199
c0 109 3 201 6 204 3 3 42 -11 87 -31 45 -21 117 -45 160 -55z m-7613 -431 c0
-213 0 -216 -26 -268 -69 -135 -177 -261 -291 -337 -72 -48 -156 -80 -293
-112 -44 -10 -56 -17 -58 -34 -2 -18 -15 -25 -65 -37 -73 -19 -71 -20 -88 78
-22 132 6 316 68 438 52 104 176 239 271 294 62 36 167 78 263 104 55 15 83
27 86 39 4 13 68 39 126 49 4 0 7 -96 7 -214z m6824 -77 c59 -196 190 -404
350 -556 112 -106 222 -178 433 -284 l172 -86 -357 -354 c-197 -194 -386 -375
-422 -402 -133 -100 -226 -126 -463 -126 l-159 0 -66 37 c-155 85 -288 206
-361 328 -108 179 -114 452 -16 660 47 98 121 181 509 573 305 307 341 341
347 320 4 -13 19 -62 33 -110z m-5767 -658 c13 0 256 -260 318 -340 94 -122
128 -231 129 -410 0 -93 -4 -129 -23 -190 -64 -209 -181 -348 -391 -468 l-91
-52 -167 0 c-255 0 -320 17 -452 116 -80 60 -793 765 -783 774 5 3 55 28 113
54 156 71 237 113 315 166 252 170 459 453 531 723 9 34 18 69 20 76 3 10 87
-68 237 -217 128 -128 237 -232 244 -232z m1911 -1010 c63 -7 121 -21 180 -44
114 -44 261 -118 300 -151 30 -25 31 -28 18 -53 -8 -15 -163 -180 -345 -366
-182 -187 -331 -348 -331 -357 0 -36 216 -191 319 -230 50 -18 73 -20 211 -17
l155 3 75 38 c133 67 257 163 422 329 l157 157 606 -612 607 -612 -6 -41 c-13
-96 -80 -223 -131 -246 -13 -6 -35 -8 -49 -4 -13 3 -136 115 -278 252 -480
467 -652 624 -686 624 -24 0 -52 -30 -52 -56 0 -31 37 -72 384 -429 166 -170
332 -343 369 -383 66 -73 67 -74 67 -130 -1 -169 -168 -300 -298 -233 -46 24
-152 114 -340 290 -425 397 -566 521 -593 521 -46 0 89 -148 443 -486 150
-143 297 -282 326 -308 77 -72 96 -107 89 -166 -8 -66 -42 -141 -80 -178 -41
-39 -113 -71 -178 -79 l-50 -6 -87 91 c-97 101 -118 114 -220 137 -39 9 -75
22 -80 28 -6 7 -20 50 -32 96 -26 104 -57 165 -107 213 -49 47 -77 58 -193 72
l-95 11 -7 40 c-3 22 -11 71 -17 109 -21 144 -90 206 -262 233 l-106 17 -7
105 c-7 123 -27 173 -89 227 -87 76 -200 108 -382 108 -162 1 -164 0 -400
-199 -49 -42 -96 -74 -105 -73 -23 5 -182 248 -250 383 -67 133 -80 188 -80
341 0 264 99 485 315 700 151 149 313 250 490 303 129 39 242 48 403 31z
m1910 -29 c160 -47 364 -173 502 -311 192 -192 294 -404 307 -640 7 -125 -7
-221 -47 -342 -34 -102 -141 -338 -153 -338 -9 0 -174 159 -787 761 -245 241
-458 447 -473 459 l-28 22 -32 -25 c-18 -14 -104 -94 -192 -178 -302 -290
-381 -347 -564 -411 -123 -42 -300 -63 -316 -38 -12 19 43 81 289 325 262 260
444 427 564 518 87 66 354 203 422 217 25 5 133 7 240 6 162 -3 207 -8 268
-25z m-2095 -1590 c43 -39 85 -117 93 -174 8 -56 -15 -132 -58 -194 -40 -59
-257 -283 -309 -318 l-41 -29 -45 24 c-50 26 -108 88 -129 137 -8 18 -14 61
-14 97 0 58 4 69 40 124 47 70 280 311 330 341 50 30 92 27 133 -8z m395 -441
c136 -78 185 -264 102 -386 -43 -61 -167 -186 -243 -243 -45 -34 -69 -45 -106
-49 -113 -10 -233 71 -265 179 -21 69 -20 85 8 144 32 70 181 236 299 336 52
44 63 49 105 49 34 0 62 -9 100 -30z m470 -476 c128 -63 163 -143 102 -235
-33 -50 -216 -232 -298 -297 -78 -61 -171 -79 -247 -48 -48 20 -120 90 -145
140 -41 85 -26 122 109 259 128 132 204 197 249 213 59 22 144 10 230 -32z
m450 -486 c26 -12 54 -35 62 -50 14 -26 13 -31 -10 -75 -15 -29 -84 -107 -170
-194 -114 -115 -158 -152 -209 -177 -79 -39 -109 -40 -186 -4 -78 38 -125 77
-125 107 0 62 249 317 391 400 40 24 52 26 122 22 54 -4 92 -12 125 -29z"/>
<path fill="white" d="M13880 9320 l0 -860 195 0 195 0 0 370 0 370 340 0 340 0 0 -370 0
-370 195 0 195 0 0 860 0 860 -195 0 -195 0 0 -330 0 -330 -340 0 -340 0 0
330 0 330 -195 0 -195 0 0 -860z"/>
<path fill="white" d="M19945 10163 c-3 -10 -148 -393 -322 -852 -251 -664 -313 -835 -302
-842 8 -5 93 -9 190 -9 l176 0 48 138 c27 75 57 161 67 190 l19 52 318 0 318
0 65 -187 65 -188 197 -3 c108 -1 196 0 196 3 0 5 -209 567 -512 1380 l-123
330 -196 3 c-180 2 -197 1 -204 -15z m305 -722 c55 -161 100 -297 100 -302 0
-5 -94 -9 -210 -9 -127 0 -210 4 -210 10 0 7 153 446 205 589 3 8 7 12 10 9 2
-2 50 -136 105 -297z"/>
<path fill="white" d="M26514 10043 c4 -76 8 -139 9 -140 2 -1 78 -5 170 -9 l167 -7 0 146
0 147 -176 0 -177 0 7 -137z"/>
<path fill="white" d="M18020 9895 l0 -185 -105 0 -105 0 0 -120 0 -120 105 0 105 0 0 -406
0 -406 32 -61 c54 -100 117 -128 330 -143 53 -3 128 -3 167 1 l71 7 0 133 0
133 -82 -5 c-96 -5 -147 14 -159 57 -4 14 -7 175 -8 358 l-1 332 43 0 c24 0
78 3 120 6 l77 7 0 107 0 107 -77 7 c-42 3 -96 6 -120 6 l-43 0 0 185 0 185
-175 0 -175 0 0 -185z"/>
<path fill="white" d="M28600 9895 l0 -185 -105 0 -105 0 0 -120 0 -120 105 0 105 0 0 -406
0 -406 32 -61 c54 -100 117 -128 330 -143 53 -3 128 -3 167 1 l71 7 0 133 0
133 -82 -5 c-96 -5 -147 14 -159 57 -4 14 -7 175 -8 358 l-1 332 43 0 c24 0
78 3 120 6 l77 7 0 107 0 107 -77 7 c-42 3 -96 6 -120 6 l-43 0 0 185 0 185
-175 0 -175 0 0 -185z"/>
<path fill="white" d="M16065 9729 c-131 -11 -254 -60 -332 -132 -71 -65 -109 -136 -127
-239 l-7 -38 173 0 174 0 12 46 c15 57 64 108 117 123 65 18 184 13 233 -9 72
-33 103 -131 62 -197 -25 -41 -99 -64 -299 -93 -293 -41 -407 -94 -465 -213
-71 -146 -36 -356 76 -452 150 -128 499 -122 674 11 42 33 51 30 59 -16 4 -22
10 -42 13 -44 4 -2 80 -8 169 -11 179 -9 185 -7 163 51 -7 18 -15 192 -21 474
-5 245 -13 468 -19 496 -13 61 -57 117 -130 164 -73 47 -157 70 -279 76 -58 2
-119 6 -136 7 -16 2 -66 0 -110 -4z m323 -777 c-5 -125 -26 -183 -86 -232
-101 -83 -301 -76 -366 13 -30 41 -29 131 2 175 35 49 87 70 254 103 83 16
158 34 167 39 9 5 20 10 25 10 5 0 7 -49 4 -108z"/>
<path fill="white" d="M17648 9730 c-103 -18 -207 -85 -278 -179 l-40 -53 0 106 0 106 -165
0 -165 0 0 -625 0 -625 170 0 170 0 0 273 c0 149 5 312 10 362 18 153 73 241
182 290 57 26 73 29 166 28 l103 -1 -3 155 c-2 123 -6 156 -18 163 -17 11 -65
11 -132 0z"/>
<path fill="white" d="M24165 9730 c-138 -16 -257 -74 -360 -177 -118 -119 -166 -252 -168
-468 -2 -152 9 -207 65 -324 131 -276 481 -400 815 -290 132 43 255 150 323
280 60 115 73 185 67 364 -3 129 -8 159 -29 217 -72 192 -223 333 -408 381
-72 19 -218 27 -305 17z m231 -280 c105 -51 162 -159 171 -325 15 -268 -97
-435 -291 -435 -146 0 -257 99 -285 254 -15 81 -14 230 3 291 33 124 100 202
206 236 40 13 149 1 196 -21z"/>
<path fill="white" d="M25612 9730 c-135 -19 -243 -73 -334 -168 -115 -119 -161 -226 -180
-410 -22 -229 35 -409 175 -546 123 -121 252 -169 452 -170 171 0 266 28 378
113 56 42 131 136 160 201 24 54 57 177 49 184 -3 4 -78 6 -166 6 l-161 0 -18
-63 c-15 -50 -29 -72 -71 -113 -140 -136 -353 -79 -427 115 -26 70 -37 240
-20 322 25 120 93 220 173 253 56 24 171 21 226 -5 51 -25 98 -85 115 -146
l11 -43 168 0 c192 0 178 -9 153 99 -22 90 -59 153 -130 219 -66 62 -159 112
-251 136 -77 19 -222 27 -302 16z"/>
<path fill="white" d="M27575 9729 c-131 -11 -254 -60 -332 -132 -71 -65 -109 -136 -127
-239 l-7 -38 173 0 174 0 12 46 c15 57 64 108 117 123 65 18 184 13 233 -9 72
-33 103 -131 62 -197 -25 -41 -99 -64 -299 -93 -293 -41 -407 -94 -465 -213
-71 -146 -36 -356 76 -452 150 -128 499 -122 674 11 42 33 51 30 59 -16 4 -22
10 -42 13 -44 4 -2 80 -8 169 -11 179 -9 185 -7 163 51 -7 18 -15 192 -21 474
-5 245 -13 468 -19 496 -13 61 -57 117 -130 164 -73 47 -157 70 -279 76 -58 2
-119 6 -136 7 -16 2 -66 0 -110 -4z m325 -744 c0 -149 -40 -240 -127 -292 -44
-26 -56 -28 -144 -27 -76 0 -103 4 -129 20 -76 44 -99 125 -58 204 31 61 78
82 260 119 80 16 155 34 165 40 31 18 33 13 33 -64z"/>
<path fill="white" d="M21365 9711 c-135 -38 -226 -105 -272 -199 -25 -51 -28 -67 -28 -162
0 -97 2 -109 28 -152 52 -88 142 -134 407 -203 216 -57 273 -79 305 -116 51
-61 22 -154 -59 -190 -96 -42 -223 -32 -306 24 -41 27 -80 90 -80 130 l0 27
-166 0 -166 0 7 -57 c10 -89 49 -164 116 -228 65 -62 173 -119 258 -135 71
-13 332 -13 407 1 75 14 187 66 240 112 87 76 136 227 115 354 -13 80 -30 111
-90 166 -64 57 -133 84 -362 142 -259 67 -314 96 -312 171 2 75 72 109 208
102 120 -7 172 -41 198 -129 4 -13 27 -17 113 -22 59 -4 134 -7 166 -7 l60 0
-7 33 c-20 101 -64 181 -133 243 -45 40 -163 93 -232 104 -106 16 -345 11
-415 -9z"/>
<path fill="white" d="M22655 9711 c-135 -38 -226 -105 -272 -199 -25 -51 -28 -67 -28 -162
0 -97 2 -109 28 -152 52 -88 142 -134 407 -203 216 -57 273 -79 305 -116 51
-61 22 -154 -59 -190 -96 -42 -223 -32 -306 24 -41 27 -80 90 -80 130 l0 27
-166 0 -166 0 7 -57 c10 -89 49 -164 116 -228 65 -62 173 -119 258 -135 71
-13 332 -13 407 1 75 14 187 66 240 112 87 76 136 227 115 354 -13 80 -30 111
-90 166 -64 57 -133 84 -362 142 -259 67 -314 96 -312 171 2 75 72 109 208
102 120 -7 172 -41 198 -129 4 -13 27 -17 113 -22 59 -4 134 -7 166 -7 l60 0
-7 33 c-20 101 -64 181 -133 243 -45 40 -163 93 -232 104 -106 16 -345 11
-415 -9z"/>
<path fill="white" d="M29730 9712 c-201 -66 -355 -225 -416 -427 -25 -83 -25 -312 0 -405
45 -165 165 -316 306 -382 104 -50 166 -62 305 -62 197 1 320 47 435 163 63
63 118 155 135 224 l7 27 -148 0 -149 0 -23 -35 c-52 -80 -167 -131 -276 -123
-72 6 -153 39 -189 76 -36 37 -68 113 -74 178 l-6 54 448 0 447 0 -7 98 c-10
143 -30 227 -76 321 -58 117 -145 203 -264 262 l-88 44 -156 2 c-129 3 -166 0
-211 -15z m314 -266 c25 -14 57 -42 71 -60 23 -31 65 -130 65 -156 0 -7 -94
-10 -275 -10 l-275 0 6 28 c25 104 96 189 183 217 70 22 169 14 225 -19z"/>
<path fill="white" d="M31005 9711 c-135 -38 -226 -105 -272 -199 -25 -51 -28 -67 -28 -162
0 -97 2 -109 28 -152 52 -88 142 -134 407 -203 216 -57 273 -79 305 -116 51
-61 22 -154 -59 -190 -96 -42 -223 -32 -306 24 -41 27 -80 90 -80 130 l0 27
-166 0 -166 0 7 -57 c10 -89 49 -164 116 -228 65 -62 173 -119 258 -135 71
-13 332 -13 407 1 75 14 187 66 240 112 87 76 136 227 115 354 -13 80 -30 111
-90 166 -64 57 -133 84 -362 142 -259 67 -314 96 -312 171 2 75 72 109 208
102 120 -7 172 -41 198 -129 4 -13 27 -17 113 -22 59 -4 134 -7 166 -7 l60 0
-7 33 c-20 101 -64 181 -133 243 -45 40 -163 93 -232 104 -106 16 -345 11
-415 -9z"/>
<path fill="white" d="M26544 9703 c-19 -4 -23 -13 -29 -81 -4 -42 -4 -318 0 -613 l8 -536
105 -7 c58 -3 134 -6 169 -6 l63 0 0 625 0 625 -147 -1 c-82 -1 -158 -4 -169
-6z"/>
<path fill="white" d="M16540 6935 l0 -808 438 7 c240 4 459 12 486 17 27 5 69 19 94 31 69
35 164 128 203 200 33 61 34 67 37 195 4 125 3 134 -23 192 -42 94 -132 171
-239 206 -17 5 -12 11 31 40 69 47 129 117 150 178 27 79 25 246 -4 310 -30
65 -85 130 -141 166 -90 58 -133 63 -604 68 l-428 5 0 -807z m827 601 c103
-33 155 -105 157 -216 1 -121 -49 -201 -152 -242 -53 -21 -75 -22 -334 -26
l-278 -4 0 257 0 257 278 -5 c220 -3 288 -8 329 -21z m30 -689 c75 -20 128
-59 163 -120 29 -49 31 -57 27 -133 -6 -147 -77 -241 -198 -264 -28 -6 -182
-10 -340 -10 l-289 0 0 268 c0 148 3 272 8 277 13 13 571 -2 629 -18z"/>
<path fill="white" d="M18060 6935 l0 -805 100 0 100 0 0 805 0 805 -100 0 -100 0 0 -805z"/>
<path fill="white" d="M21060 6935 l0 -805 100 0 100 0 0 219 0 219 63 60 c34 33 74 70 89
81 l26 21 194 -294 193 -294 113 -7 c73 -5 117 -4 124 3 6 6 -69 128 -231 371
-133 198 -241 362 -241 364 0 1 101 95 225 207 l224 205 -57 6 c-31 4 -88 7
-125 8 l-68 1 -150 -142 c-83 -79 -202 -192 -265 -251 l-114 -109 0 471 0 471
-100 0 -100 0 0 -805z"/>
<path fill="white" d="M23420 6935 l0 -805 99 0 99 0 4 388 3 387 26 56 c67 142 224 216
379 179 66 -16 133 -76 149 -135 7 -26 11 -185 11 -457 l0 -418 100 0 100 0
-1 213 c0 116 -4 329 -8 472 -6 234 -9 265 -28 307 -31 69 -94 131 -166 164
-59 27 -69 29 -197 29 -131 0 -137 -1 -202 -32 -37 -17 -87 -52 -112 -76 -24
-25 -47 -43 -50 -39 -3 3 -6 133 -6 289 l0 283 -100 0 -100 0 0 -805z"/>
<path fill="white" d="M25890 7620 l0 -120 100 0 100 0 0 120 0 120 -100 0 -100 0 0 -120z"/>
<path fill="white" d="M28290 6935 l0 -805 535 0 535 0 0 95 0 95 -425 0 -425 0 0 710 0
710 -110 0 -110 0 0 -805z"/>
<path fill="white" d="M30730 6935 l0 -805 100 0 100 0 0 71 0 71 40 -40 c95 -99 279 -143
456 -111 246 45 404 272 405 579 0 277 -109 483 -308 578 l-78 37 -140 0
c-177 0 -241 -20 -322 -101 l-53 -53 0 290 0 289 -100 0 -100 0 0 -805z m696
175 c78 -40 130 -100 166 -190 26 -67 37 -256 19 -342 -18 -84 -62 -168 -115
-216 -69 -63 -105 -76 -216 -77 -84 0 -101 3 -152 28 -167 82 -248 318 -189
550 24 94 41 127 94 184 70 76 138 103 248 100 65 -2 86 -7 145 -37z"/>
<path fill="white" d="M18870 7297 c-269 -92 -410 -349 -371 -677 21 -170 77 -291 179 -381
122 -107 324 -154 513 -119 133 25 271 123 342 241 63 107 81 182 82 344 0
159 -11 215 -62 323 -65 138 -214 255 -362 282 -98 18 -248 12 -321 -13z m324
-180 c143 -66 215 -202 216 -407 0 -194 -74 -332 -213 -396 -52 -24 -75 -29
-142 -29 -71 0 -88 4 -147 33 -138 68 -208 203 -208 400 0 134 53 277 125 340
36 32 99 68 145 83 46 15 166 2 224 -24z"/>
<path fill="white" d="M20150 7297 c-214 -73 -332 -234 -361 -493 -27 -239 29 -433 162
-559 107 -102 235 -142 419 -132 152 8 281 69 360 169 39 48 92 171 104 241
l7 37 -99 0 -98 0 -18 -57 c-31 -99 -74 -152 -156 -195 -37 -19 -60 -23 -135
-23 -111 0 -155 15 -218 74 -85 80 -127 194 -127 351 0 260 122 424 326 438
144 9 256 -56 299 -176 l19 -52 98 0 c88 0 98 2 98 18 0 32 -31 126 -56 168
-33 56 -118 135 -175 162 -114 55 -332 69 -449 29z"/>
<path fill="white" d="M22520 7297 c-214 -73 -332 -234 -361 -493 -27 -239 29 -433 162
-559 107 -102 235 -142 419 -132 152 8 281 69 360 169 39 48 92 171 104 241
l7 37 -99 0 -98 0 -18 -57 c-31 -99 -74 -152 -156 -195 -37 -19 -60 -23 -135
-23 -111 0 -155 15 -218 74 -85 80 -127 194 -127 351 0 260 122 424 326 438
144 9 256 -56 299 -176 l19 -52 98 0 c88 0 98 2 98 18 0 32 -31 126 -56 168
-33 56 -118 135 -175 162 -114 55 -332 69 -449 29z"/>
<path fill="white" d="M24980 7309 c-74 -14 -184 -74 -228 -124 -47 -54 -71 -101 -88 -175
-18 -75 -12 -80 96 -80 l88 0 7 37 c10 52 28 85 69 121 49 43 103 57 221 57
122 -1 179 -22 215 -80 34 -55 39 -132 10 -168 -32 -40 -72 -53 -279 -92 -318
-59 -383 -91 -451 -225 -19 -37 -23 -61 -23 -140 -1 -108 20 -170 76 -228 88
-92 285 -127 460 -83 92 24 118 37 190 95 l55 46 7 -33 c24 -108 120 -151 261
-116 l44 11 0 78 0 78 -43 -5 c-73 -8 -70 -21 -79 418 -7 366 -9 392 -29 439
-37 86 -118 143 -237 169 -61 13 -276 13 -342 0z m410 -696 c0 -92 -4 -115
-24 -158 -27 -60 -80 -109 -156 -144 -48 -23 -68 -26 -160 -26 -94 0 -110 3
-149 25 -96 55 -111 191 -29 267 42 39 111 62 287 93 96 17 181 35 190 40 37
22 41 13 41 -97z"/>
<path fill="white" d="M26805 7307 c-91 -31 -139 -64 -202 -142 l-33 -40 0 88 0 87 -95 0
-95 0 0 -585 0 -585 99 0 99 0 4 388 3 387 26 56 c67 142 224 216 379 179 66
-16 133 -76 149 -135 7 -26 11 -185 11 -457 l0 -418 100 0 100 0 -1 213 c0
116 -4 329 -7 472 -7 257 -8 261 -35 317 -33 68 -90 121 -166 156 -49 23 -72
26 -176 29 -80 2 -133 -2 -160 -10z"/>
<path fill="white" d="M29820 7309 c-74 -14 -184 -74 -228 -124 -47 -54 -71 -101 -88 -175
-18 -75 -12 -80 96 -80 l88 0 7 37 c10 52 28 85 69 121 49 43 103 57 221 57
122 -1 179 -22 215 -80 34 -55 39 -132 10 -168 -32 -40 -72 -53 -279 -92 -318
-59 -383 -91 -451 -225 -19 -37 -23 -61 -23 -140 -1 -108 20 -170 76 -228 88
-92 285 -127 460 -83 92 24 118 37 190 95 l55 46 7 -33 c24 -108 120 -151 261
-116 l44 11 0 78 0 78 -43 -5 c-73 -8 -70 -21 -79 418 -7 366 -9 392 -29 439
-37 86 -118 143 -237 169 -61 13 -276 13 -342 0z m410 -691 c0 -57 -5 -119
-10 -139 -16 -56 -82 -124 -158 -161 -62 -31 -73 -33 -172 -33 -94 0 -110 3
-149 25 -55 31 -81 78 -81 145 0 86 57 150 160 179 30 8 123 27 205 42 83 14
157 30 165 35 36 20 40 12 40 -93z"/>
<path fill="white" d="M25890 6715 l0 -585 100 0 100 0 0 585 0 585 -100 0 -100 0 0 -585z"/>
</g>
</svg>
