<svg height="480pt" viewBox="0 0 480 480" width="480pt" xmlns="http://www.w3.org/2000/svg"><path d="m480 40c0-22.054688-17.945312-40-40-40h-168c-2.128906 0-4.160156.839844-5.65625 2.34375l-40 40c-3.128906 3.128906-3.128906 8.183594 0 11.3125l34.34375 34.34375-34.34375 34.34375c-3.128906 3.128906-3.128906 8.183594 0 11.3125l34.34375 34.34375-34.34375 34.34375c-3.128906 3.128906-3.128906 8.183594 0 11.3125l40 40c3.128906 3.128906 8.183594 3.128906 11.3125 0l34.34375-34.34375 34.34375 34.34375c3.128906 3.128906 8.183594 3.128906 11.3125 0l34.34375-34.34375 34.34375 34.34375c1.558594 1.558594 3.609375 2.34375 5.65625 2.34375s4.097656-.785156 5.65625-2.34375l40-40c1.503906-1.496094 2.34375-3.535156 2.34375-5.65625zm-16 164.6875-32 32-34.34375-34.34375c-1.558594-1.558594-3.609375-2.34375-5.65625-2.34375s-4.097656.785156-5.65625 2.34375l-34.34375 34.34375-34.34375-34.34375c-3.128906-3.128906-8.183594-3.128906-11.3125 0l-34.34375 34.34375-28.6875-28.6875 34.34375-34.34375c3.128906-3.128906 3.128906-8.183594 0-11.3125l-34.34375-34.34375 34.34375-34.34375c3.128906-3.128906 3.128906-8.183594 0-11.3125l-34.34375-34.34375 32-32h164.6875c13.230469 0 24 10.769531 24 24zm0 0"/><path d="m40 480h336c22.054688 0 40-17.945312 40-40v-168c0-3.230469-1.945312-6.152344-4.9375-7.390625-2.992188-1.234375-6.429688-.554687-8.71875 1.734375l-34.34375 34.34375-34.34375-34.34375c-3.128906-3.128906-8.183594-3.128906-11.3125 0l-34.34375 34.34375-34.34375-34.34375c-3.128906-3.128906-8.183594-3.128906-11.3125 0l-34.34375 34.34375-28.6875-28.6875 34.34375-34.34375c3.128906-3.128906 3.128906-8.183594 0-11.3125l-34.34375-34.34375 34.34375-34.34375c3.128906-3.128906 3.128906-8.183594 0-11.3125l-34.34375-34.34375 34.34375-34.34375c2.289062-2.289062 2.976562-5.726562 1.734375-8.71875-1.230469-2.984375-4.160156-4.9375-7.390625-4.9375h-168c-22.054688 0-40 17.945312-40 40v336c0 22.054688 17.945312 40 40 40zm208-196.6875 34.34375 34.34375c3.128906 3.128906 8.183594 3.128906 11.3125 0l34.34375-34.34375 34.34375 34.34375c3.128906 3.128906 8.183594 3.128906 11.3125 0l26.34375-26.34375v148.6875c0 13.230469-10.769531 24-24 24h-164.6875l-32-32 34.34375-34.34375c3.128906-3.128906 3.128906-8.183594 0-11.3125l-34.34375-34.34375zm-51.3125 28.6875-34.34375 34.34375c-3.128906 3.128906-3.128906 8.183594 0 11.3125l34.34375 34.34375-34.34375 34.34375c-3.128906 3.128906-3.128906 8.183594 0 11.3125l26.34375 26.34375h-148.6875c-13.230469 0-24-10.769531-24-24v-148.6875l26.34375 26.34375c3.128906 3.128906 8.183594 3.128906 11.3125 0l34.34375-34.34375 34.34375 34.34375c1.558594 1.558594 3.609375 2.34375 5.65625 2.34375s4.097656-.785156 5.65625-2.34375l34.34375-34.34375zm-156.6875-232h148.6875l-26.34375 26.34375c-3.128906 3.128906-3.128906 8.183594 0 11.3125l34.34375 34.34375-34.34375 34.34375c-3.128906 3.128906-3.128906 8.183594 0 11.3125l34.34375 34.34375-68.6875 68.6875-34.34375-34.34375c-3.128906-3.128906-8.183594-3.128906-11.3125 0l-34.34375 34.34375-32-32v-164.6875c0-13.230469 10.769531-24 24-24zm0 0"/><path d="m368 40c-22.054688 0-40 17.945312-40 40v16h16v-16c0-13.230469 10.769531-24 24-24s24 10.769531 24 24v12.6875l-29.65625 29.65625c-1.503906 1.496094-2.34375 3.535156-2.34375 5.65625v24h16v-20.6875l29.65625-29.65625c1.503906-1.496094 2.34375-3.535156 2.34375-5.65625v-16c0-22.054688-17.945312-40-40-40zm0 0"/><path d="m360 168h16v16h-16zm0 0"/><path d="m360 432h16v16h-16zm0 0"/><path d="m328 432h16v16h-16zm0 0"/><path d="m296 432h16v16h-16zm0 0"/></svg>